# xmcd CD database file
# Copyright (C) 1993-1998 Ti Kan
# Generated: Tue Apr 28 00:50:07 1998 by KSCD
# 
# Track frame offsets:
#       150
#       20828
#       37443
#       70075
#       96260
#       139703
#       151615
#       174615
#       191415
#       212098
#       230938
#       247458
#       263313
#
# Disc length: 4034 seconds
#
# Revision: 2
# Processed by: cddbd v1.4b41PL1 Copyright (c) Steve Scherf et al.
# Submitted via: Kscd 0.9
#
DISCID=bf0fc00d
DTITLE=Allman Brothers Band/Live USA
DYEAR=1900
DGENRE=
TTITLE0=Wasted Words
TTITLE1=Done Somebody Wrong
TTITLE2=Ramblin' Man
TTITLE3=Southbound
TTITLE4=Jessica
TTITLE5=Don't Want You No More
TTITLE6=It's Not My Cross To Bear
TTITLE7=Can't Take It With You 
TTITLE8=Blue Sky
TTITLE9=I Need Your Love So Bad
TTITLE10=Crazy Love
TTITLE11=Midnight Rider
TTITLE12=In Memory Of Elisabeth Reed
EXTD=
EXTT0=
EXTT1=
EXTT2=
EXTT3=
EXTT4=
EXTT5=
EXTT6=
EXTT7=
EXTT8=
EXTT9=
EXTT10=
EXTT11=
EXTT12=
PLAYORDER=
